<?xml version="1.0" standalone="no"?>
<!DOCTYPE svg PUBLIC "-//W3C//DTD SVG 20010904//EN"
 "http://www.w3.org/TR/2001/REC-SVG-20010904/DTD/svg10.dtd">
<svg version="1.0" xmlns="http://www.w3.org/2000/svg"
 width="1280.000000pt" height="1280.000000pt" viewBox="0 0 1280.000000 1280.000000"
 preserveAspectRatio="xMidYMid meet">
<metadata>
Created by potrace 1.15, written by Peter Selinger 2001-2017
</metadata>
<g transform="translate(0.000000,1280.000000) scale(0.100000,-0.100000)"
fill="#000000" stroke="none">
<path d="M10420 12089 c-8 -5 -150 -53 -315 -108 -1323 -437 -2702 -1067
-3815 -1744 -155 -94 -427 -268 -525 -335 -44 -31 -123 -85 -175 -121 -166
-113 -509 -372 -680 -513 -1319 -1080 -2072 -2244 -2254 -3480 -132 -895 43
-1835 521 -2792 142 -284 271 -504 479 -818 79 -119 144 -220 144 -223 0 -12
-226 -262 -370 -409 -299 -306 -580 -526 -835 -654 -124 -62 -136 -67 -375
-157 -107 -41 -216 -83 -242 -95 -62 -27 -98 -71 -98 -118 1 -104 97 -155 197
-104 21 11 124 51 229 90 412 153 631 276 936 530 133 111 427 400 581 572 66
74 124 136 128 138 4 2 16 -9 25 -23 16 -25 18 -26 25 -8 7 19 10 19 175 -4
676 -90 1361 -109 1924 -52 2012 202 3392 1287 4120 3239 474 1271 659 2963
530 4855 -51 751 -142 1471 -271 2148 -17 87 -28 165 -25 172 6 17 -14 25 -34
14z"/>
</g>
</svg>
